<svg width="344" height="42" viewBox="0 0 172 21" fill="none" xmlns="http://www.w3.org/2000/svg">
<path d="M111.754 20.0055C115.668 20.0055 118.482 17.8359 118.482 14.5092V14.455C118.482 11.4826 116.459 9.89882 112.063 8.95144C107.726 8.03298 106.713 7.00603 106.713 5.17273V5.11849C106.713 3.36836 108.346 1.97982 110.908 1.97982C112.752 1.96521 114.548 2.56209 116.011 3.67571C116.199 3.8107 116.428 3.87943 116.66 3.87098C116.8 3.87145 116.939 3.8445 117.068 3.79165C117.198 3.7388 117.315 3.6611 117.415 3.56301C117.514 3.46491 117.593 3.34835 117.646 3.22001C117.7 3.09167 117.728 2.95408 117.728 2.81511C117.723 2.64027 117.677 2.46889 117.595 2.31451C117.512 2.16013 117.394 2.02698 117.25 1.92558C115.429 0.607374 113.216 -0.0685248 110.963 0.00549213C107.216 0.00549213 104.489 2.25102 104.489 5.31014V5.36438C104.489 8.56091 106.571 10.0037 111.105 10.9764C115.245 11.837 116.23 12.8675 116.23 14.6719V14.7262C116.23 16.6426 114.484 18.0348 111.837 18.0348C109.543 18.0825 107.316 17.257 105.616 15.7278C105.43 15.5635 105.19 15.4744 104.941 15.4783C104.799 15.4787 104.658 15.5073 104.527 15.5623C104.396 15.6173 104.277 15.6976 104.178 15.7986C104.079 15.8996 104.001 16.0192 103.948 16.1504C103.896 16.2817 103.87 16.422 103.873 16.5631C103.869 16.7255 103.906 16.8864 103.98 17.0315C104.053 17.1766 104.162 17.3014 104.296 17.3948C106.396 19.1082 109.038 20.0314 111.757 20.0019" fill="#1F3685"/>
<path d="M9.82748 19.9478H9.94047C10.2256 19.9492 10.504 19.8616 10.7362 19.6974C10.9684 19.5333 11.1427 19.3008 11.2344 19.033L18.8632 1.6437C18.9206 1.50241 18.9491 1.35123 18.947 1.19893C18.9394 0.91627 18.8209 0.647723 18.6166 0.450499C18.4124 0.253275 18.1386 0.142966 17.8536 0.143066C17.6174 0.162302 17.391 0.24478 17.1984 0.381701C17.0058 0.518622 16.8543 0.704845 16.7601 0.920501L9.9186 17.0876L3.10626 0.978358C3.02315 0.738747 2.86765 0.530358 2.66091 0.381546C2.45416 0.232734 2.20623 0.150725 1.95083 0.14668C1.65882 0.150134 1.37926 0.264546 1.16973 0.466356C0.9602 0.668167 0.836656 0.942008 0.824547 1.23148C0.818708 1.40465 0.857604 1.57643 0.937539 1.73048L8.53718 19.0366C8.62546 19.3066 8.7989 19.5412 9.03189 19.706C9.26488 19.8707 9.54508 19.9567 9.83113 19.9514" fill="#1F3685"/>
<path d="M44.1624 0.142991H44.2754C44.561 0.141859 44.8397 0.229972 45.0719 0.394834C45.3042 0.559696 45.4782 0.792931 45.5693 1.06145L53.2018 18.4471C53.2591 18.5884 53.2876 18.7396 53.2856 18.8919C53.278 19.1745 53.1595 19.4431 52.9552 19.6403C52.751 19.8375 52.4772 19.9478 52.1921 19.9477C51.956 19.9285 51.7296 19.846 51.537 19.7091C51.3444 19.5722 51.1929 19.3859 51.0987 19.1703L44.2462 3.00685L37.4339 19.1161C37.3508 19.3557 37.1953 19.5641 36.9885 19.7129C36.7818 19.8617 36.5339 19.9437 36.2785 19.9477C35.9864 19.9443 35.7069 19.8299 35.4974 19.628C35.2878 19.4262 35.1643 19.1524 35.1522 18.8629C35.1463 18.6898 35.1852 18.518 35.2652 18.3639L42.8648 1.05783C42.9525 0.787178 43.1256 0.551712 43.3587 0.386293C43.5917 0.220874 43.8722 0.134293 44.1588 0.139371" fill="#1F3685"/>
<path d="M78.5048 0.142991H78.6177C78.9033 0.141859 79.182 0.229972 79.4143 0.394834C79.6466 0.559696 79.8206 0.792931 79.9117 1.06145L87.5405 18.4471C87.5979 18.5884 87.6264 18.7396 87.6243 18.8919C87.6167 19.1745 87.4982 19.4431 87.2939 19.6403C87.0897 19.8375 86.8159 19.9478 86.5309 19.9477C86.2947 19.9285 86.0683 19.846 85.8757 19.7091C85.6831 19.5722 85.5316 19.3859 85.4374 19.1703L78.5886 3.00685L71.7908 19.1161C71.7077 19.3557 71.5522 19.5641 71.3455 19.7129C71.1387 19.8617 70.8908 19.9437 70.6354 19.9477C70.3434 19.9443 70.0638 19.8299 69.8543 19.628C69.6448 19.4262 69.5212 19.1524 69.5091 18.8629C69.5033 18.6898 69.5422 18.518 69.6221 18.3639L77.2218 1.05783C77.3094 0.787178 77.4825 0.551712 77.7156 0.386293C77.9486 0.220874 78.2292 0.134293 78.5157 0.139371" fill="#1F3685"/>
<path d="M143.639 0.142991H143.752C144.038 0.141859 144.317 0.229972 144.549 0.394834C144.781 0.559696 144.955 0.792931 145.046 1.06145L152.675 18.4471C152.733 18.5884 152.761 18.7396 152.759 18.8919C152.751 19.1745 152.633 19.4431 152.429 19.6403C152.224 19.8375 151.951 19.9478 151.666 19.9477C151.429 19.9285 151.203 19.846 151.01 19.7091C150.818 19.5722 150.666 19.3859 150.572 19.1703L143.723 3.00685L136.911 19.1161C136.828 19.3557 136.672 19.5641 136.466 19.7129C136.259 19.8617 136.011 19.9437 135.755 19.9477C135.463 19.9443 135.184 19.8299 134.974 19.628C134.765 19.4262 134.641 19.1524 134.629 18.8629C134.623 18.6898 134.662 18.518 134.742 18.3639L142.342 1.05783C142.429 0.787178 142.603 0.551712 142.836 0.386293C143.069 0.220874 143.349 0.134293 143.636 0.139371" fill="#1F3685"/>
<path d="M170.204 19.9623C170.449 19.9623 170.688 19.8902 170.892 19.7551C171.096 19.62 171.255 19.428 171.349 19.2033C171.442 18.9787 171.467 18.7315 171.419 18.493C171.371 18.2545 171.253 18.0354 171.08 17.8635C170.907 17.6916 170.686 17.5745 170.445 17.527C170.205 17.4796 169.956 17.5039 169.729 17.597C169.503 17.6901 169.309 17.8476 169.173 18.0498C169.037 18.252 168.964 18.4897 168.964 18.7328C168.964 19.0589 169.095 19.3716 169.327 19.6022C169.56 19.8328 169.875 19.9623 170.204 19.9623Z" fill="#1F3685"/>
</svg>
